<svg width="186" height="52" viewBox="0 0 186 52" fill="none" xmlns="http://www.w3.org/2000/svg">
<g clip-path="url(#clip0_6415_1604)">
<path d="M8.34164 13.1263V8.23009H11.3035V10.2916H15.7464V8.23009H18.7083V10.2916H23.1512V8.23009H26.1131V13.1263H8.34164Z" fill="#D8AE5E"/>
<path fill-rule="evenodd" clip-rule="evenodd" d="M0.0389522 15.8465C0.0389522 15.8465 -0.0486984 20.144 0.0389644 25.7564C0.0466674 26.2496 0.0526152 26.7508 0.0586375 27.2583C0.183594 37.7889 0.340675 51.0267 16.8755 51.0267C34.2072 51.0267 34.4548 41.86 34.4548 24.5177L34.4548 15.8465H0.0389522ZM31.9857 18.3155H2.47777C2.47681 18.4434 2.47591 18.5756 2.47506 18.712C2.46419 20.4745 2.4642 22.9335 2.50769 25.7178C2.51521 26.1991 2.5214 26.6815 2.5276 27.1641C2.59334 32.2839 2.65937 37.4257 4.30815 41.4844C5.1695 43.6048 6.42766 45.3093 8.29326 46.5106C10.1743 47.7219 12.8846 48.5576 16.8755 48.5576C21.0244 48.5576 23.8925 48.0036 25.9034 47.0798C27.8361 46.1919 29.0847 44.9153 29.9559 43.1719C30.8675 41.3476 31.4028 38.9337 31.686 35.7568C31.9685 32.5878 31.9858 28.8764 31.9858 24.5177L31.9857 18.3155Z" fill="#F0C05A"/>
<path d="M11.0617 33.0737H5.62151C5.62151 33.0737 5.65551 36.6899 6.70955 39.4206C7.76359 42.1514 11.0617 44.6795 11.0617 44.6795V33.0737Z" fill="#F2CB80"/>
<path d="M20.6729 28.1776H13.782V45.405H20.6729V28.1776Z" fill="url(#paint0_radial_6415_1604)"/>
<path d="M29.0146 23.4626H23.393V44.6795C23.393 44.6795 29.0146 43.3107 29.0146 36.1243V23.4626Z" fill="#D8AE5E"/>
<path d="M45.6786 32.9204H42.9479V11.2818H46.37L50.0686 24.6936L53.7672 11.2818H57.1892V32.9204H54.4585V17.089L51.4858 28.2193H48.6513L45.6786 17.1235V32.9204Z" fill="white"/>
<path d="M62.9834 37.6905H60.9094V35.2017H62.3267C63.3176 35.2017 63.9167 34.8215 64.1241 34.061L64.4698 32.6438H62.776L59.2503 16.052H62.4304L64.9883 30.1896L67.3734 16.052H70.5189L66.9586 34.545C66.4516 36.642 65.1265 37.6905 62.9834 37.6905Z" fill="white"/>
<path d="M87.0184 13.8051H80.7273V20.9258H85.7049V23.38H80.7273V32.9204H77.5818V11.2818H87.0184V13.8051Z" fill="white"/>
<path d="M95.2463 16.052H98.3572V32.9204H95.2463V31.5723C94.9467 32.471 94.2323 32.9204 93.1032 32.9204H91.8588C89.7848 32.9204 88.7478 31.9064 88.7478 29.8785V16.052H91.8588V29.3946C91.8588 29.8094 91.9279 30.0859 92.0662 30.2242C92.2044 30.3394 92.481 30.397 92.8958 30.397H94.1056C94.5204 30.397 94.8084 30.3048 94.9697 30.1205C95.1541 29.9361 95.2463 29.625 95.2463 29.1872V16.052Z" fill="white"/>
<path d="M106.661 16.052H107.871C109.968 16.052 111.017 17.0774 111.017 19.1284V32.9204H107.906V19.5777C107.906 19.1629 107.837 18.8979 107.698 18.7827C107.56 18.6444 107.283 18.5753 106.869 18.5753H105.659C105.244 18.5753 104.944 18.6675 104.76 18.8518C104.599 19.0362 104.518 19.3473 104.518 19.7851V32.9204H101.407V16.052H104.518V17.4001C104.818 16.5013 105.532 16.052 106.661 16.052Z" fill="white"/>
<path d="M120.323 9.79545H123.434V32.9204H120.323V31.5723C120.024 32.471 119.309 32.9204 118.18 32.9204H116.936C114.862 32.9204 113.825 31.9064 113.825 29.8785V19.0938C113.825 17.0429 114.862 16.0174 116.936 16.0174H118.18C119.309 16.0174 120.024 16.4668 120.323 17.3655V9.79545ZM117.973 30.397H119.182C119.597 30.397 119.885 30.3048 120.047 30.1205C120.231 29.9361 120.323 29.625 120.323 29.1872V19.7506C120.323 19.3127 120.231 19.0016 120.047 18.8173C119.885 18.6329 119.597 18.5407 119.182 18.5407H117.973C117.558 18.5407 117.281 18.6099 117.143 18.7481C117.005 18.8864 116.936 19.1514 116.936 19.5432V29.3946C116.936 29.8094 117.005 30.0859 117.143 30.2242C117.281 30.3394 117.558 30.397 117.973 30.397Z" fill="white"/>
<path d="M129.634 16.052H133.021C135.187 16.052 136.27 17.0774 136.27 19.1284V25.454H129.461V29.4637C129.461 29.8555 129.53 30.1205 129.668 30.2587C129.806 30.397 130.083 30.4661 130.498 30.4661H132.088C132.503 30.4661 132.779 30.397 132.917 30.2587C133.056 30.1205 133.125 29.8439 133.125 29.4292V28.0465H136.167V29.8785C136.167 31.9064 135.095 32.9204 132.952 32.9204H129.634C127.49 32.9204 126.419 31.9064 126.419 29.8785V19.1284C126.419 17.0774 127.49 16.052 129.634 16.052ZM129.461 23.1726H133.194V19.5086C133.194 19.1168 133.125 18.8518 132.987 18.7136C132.871 18.5753 132.606 18.5062 132.192 18.5062H130.498C130.083 18.5062 129.806 18.5753 129.668 18.7136C129.53 18.8518 129.461 19.1168 129.461 19.5086V23.1726Z" fill="white"/>
<path d="M145.235 9.79545H148.346V32.9204H145.235V31.5723C144.936 32.471 144.221 32.9204 143.092 32.9204H141.848C139.774 32.9204 138.737 31.9064 138.737 29.8785V19.0938C138.737 17.0429 139.774 16.0174 141.848 16.0174H143.092C144.221 16.0174 144.936 16.4668 145.235 17.3655V9.79545ZM142.885 30.397H144.094C144.509 30.397 144.797 30.3048 144.959 30.1205C145.143 29.9361 145.235 29.625 145.235 29.1872V19.7506C145.235 19.3127 145.143 19.0016 144.959 18.8173C144.797 18.6329 144.509 18.5407 144.094 18.5407H142.885C142.47 18.5407 142.193 18.6099 142.055 18.7481C141.917 18.8864 141.848 19.1514 141.848 19.5432V29.3946C141.848 29.8094 141.917 30.0859 142.055 30.2242C142.193 30.3394 142.47 30.397 142.885 30.397Z" fill="white"/>
<path d="M166.109 13.8051H159.818V20.9258H164.796V23.38H159.818V32.9204H156.673V11.2818H166.109V13.8051Z" fill="white"/>
<path d="M174.475 21.8591L179.107 32.9204H175.651L172.747 24.6936L169.843 32.9204H166.491L171.053 21.8591L166.802 11.2818H170.258L172.747 19.0592L175.27 11.2818H178.658L174.475 21.8591Z" fill="white"/>
<path d="M45.0219 42.5199V43.2297H42.6253V45.1378H44.8375V45.8383H42.6253V47.8478H45.0219V48.5575H41.8418V42.5199H45.0219Z" fill="#DBB66B"/>
<path d="M52.1043 42.5199L50.2884 48.5575H49.256L47.4955 42.5199H48.325L49.7722 47.8017L51.2747 42.5199H52.1043Z" fill="#DBB66B"/>
<path d="M56.496 42.5199L58.3488 48.5575H57.5008L57.1044 47.1564H54.8829L54.4866 48.5575H53.6846L55.5282 42.5199H56.496ZM55.9983 43.2389L55.0765 46.4559H56.9108L55.9983 43.2389Z" fill="#DBB66B"/>
<path d="M61.6969 42.5199V47.8662H64.0935V48.5575H60.9134V42.5199H61.6969Z" fill="#DBB66B"/>
<path d="M70.3722 46.6495C70.3722 47.3008 70.2063 47.8017 69.8744 48.1519C69.5426 48.4961 69.0541 48.6681 68.4088 48.6681C67.7697 48.6681 67.2812 48.4991 66.9432 48.1612C66.6114 47.8232 66.4455 47.3254 66.4455 46.6679V42.5199H67.229V46.7693C67.229 47.1626 67.3304 47.4637 67.5331 47.6726C67.7421 47.8754 68.034 47.9768 68.4088 47.9768C68.7898 47.9768 69.0817 47.8754 69.2845 47.6726C69.4873 47.4637 69.5887 47.1626 69.5887 46.7693V42.5199H70.3722V46.6495Z" fill="#DBB66B"/>
<path d="M75.6577 42.5199L77.5104 48.5575H76.6624L76.2661 47.1564H74.0446L73.6482 48.5575H72.8463L74.6898 42.5199H75.6577ZM75.1599 43.2389L74.2382 46.4559H76.0725L75.1599 43.2389Z" fill="#DBB66B"/>
<path d="M83.3974 42.5199V43.2297H81.646V48.5575H80.8625V43.2297H79.1112V42.5199H83.3974Z" fill="#DBB66B"/>
<path d="M86.9037 42.5199V48.5575H86.1202V42.5199H86.9037Z" fill="#DBB66B"/>
<path d="M92.0043 42.4093C92.6926 42.4093 93.1996 42.5814 93.5253 42.9255C93.851 43.2696 94.0138 43.7582 94.0138 44.3911V46.6863C94.0138 47.3193 93.851 47.8078 93.5253 48.1519C93.1996 48.4961 92.6926 48.6681 92.0043 48.6681C91.3161 48.6681 90.8091 48.4961 90.4834 48.1519C90.1577 47.8078 89.9949 47.3193 89.9949 46.6863V44.3911C89.9949 43.7582 90.1577 43.2696 90.4834 42.9255C90.8091 42.5814 91.3161 42.4093 92.0043 42.4093ZM92.0043 43.1006C91.5988 43.1006 91.2915 43.202 91.0826 43.4048C90.8798 43.6076 90.7784 43.9057 90.7784 44.2989V46.7693C90.7784 47.1626 90.8798 47.4637 91.0826 47.6726C91.2915 47.8754 91.5988 47.9768 92.0043 47.9768C92.4099 47.9768 92.7141 47.8754 92.9169 47.6726C93.1258 47.4637 93.2303 47.1626 93.2303 46.7693V44.3082C93.2303 43.9149 93.1258 43.6168 92.9169 43.414C92.7141 43.2051 92.4099 43.1006 92.0043 43.1006Z" fill="#DBB66B"/>
<path d="M99.8686 48.5575L97.8776 43.4601V48.5575H97.1033V42.5199H98.3569L100.311 47.6173V42.5199H101.085V48.5575H99.8686Z" fill="#DBB66B"/>
<path d="M109.139 42.4093C109.471 42.4093 109.904 42.4585 110.439 42.5568L110.42 43.2481C109.916 43.1498 109.489 43.1006 109.139 43.1006C108.783 43.1006 108.525 43.1713 108.365 43.3127C108.211 43.454 108.134 43.6691 108.134 43.9579V44.1976C108.134 44.3512 108.153 44.4741 108.19 44.5663C108.233 44.6523 108.306 44.7291 108.411 44.7967C108.515 44.8582 108.672 44.9227 108.881 44.9903L109.738 45.276C110.15 45.4174 110.439 45.6048 110.605 45.8383C110.777 46.0718 110.863 46.4129 110.863 46.8615V47.0366C110.863 47.5835 110.703 47.9922 110.383 48.2626C110.07 48.5329 109.554 48.6681 108.835 48.6681C108.485 48.6681 108.036 48.6067 107.489 48.4838L107.507 47.774C108.018 47.8969 108.454 47.9584 108.816 47.9584C109.277 47.9584 109.603 47.8908 109.793 47.7556C109.984 47.6142 110.079 47.3961 110.079 47.1011V46.7969C110.079 46.5819 110.03 46.419 109.932 46.3084C109.84 46.1916 109.674 46.0933 109.434 46.0134L108.485 45.7C108.061 45.5587 107.766 45.3774 107.6 45.1562C107.434 44.9288 107.351 44.5878 107.351 44.133V44.0316C107.351 43.497 107.492 43.0945 107.775 42.8241C108.064 42.5476 108.518 42.4093 109.139 42.4093Z" fill="#DBB66B"/>
<path d="M116.808 42.5199V43.2297H114.411V45.1378H116.623V45.8383H114.411V47.8478H116.808V48.5575H113.627V42.5199H116.808Z" fill="#DBB66B"/>
<path d="M121.457 42.4093C122.182 42.4093 122.716 42.5507 123.06 42.8333C123.405 43.116 123.577 43.5124 123.577 44.0224V44.2529C123.577 44.6093 123.478 44.9257 123.282 45.2023C123.085 45.4727 122.802 45.6632 122.434 45.7738L124.001 48.5575H123.125L121.659 45.9397C121.61 45.9458 121.512 45.9489 121.364 45.9489C121.119 45.9489 120.876 45.9397 120.636 45.9213V48.5575H119.853V42.4462C120.541 42.4216 121.076 42.4093 121.457 42.4093ZM121.438 43.073C121.235 43.073 120.968 43.0791 120.636 43.0914V45.2668C120.968 45.2975 121.245 45.3129 121.466 45.3129C122.351 45.3129 122.793 44.9534 122.793 44.2344V44.0501C122.793 43.7182 122.686 43.4724 122.47 43.3127C122.255 43.1529 121.911 43.073 121.438 43.073Z" fill="#DBB66B"/>
<path d="M130.601 42.5199L128.785 48.5575H127.753L125.992 42.5199H126.822L128.269 47.8017L129.772 42.5199H130.601Z" fill="#DBB66B"/>
<path d="M133.951 42.5199V48.5575H133.167V42.5199H133.951Z" fill="#DBB66B"/>
<path d="M139.005 42.4093C139.245 42.4093 139.503 42.4339 139.78 42.4831C140.062 42.5261 140.228 42.5507 140.277 42.5568L140.259 43.2481C139.718 43.1498 139.3 43.1006 139.005 43.1006C138.587 43.1006 138.286 43.1867 138.102 43.3587C137.918 43.5308 137.825 43.8166 137.825 44.216V46.8522C137.825 47.2517 137.914 47.5374 138.093 47.7095C138.277 47.8754 138.581 47.9584 139.005 47.9584C139.3 47.9584 139.718 47.9092 140.259 47.8109L140.277 48.5207C140.228 48.5268 140.062 48.5514 139.78 48.5944C139.503 48.6436 139.245 48.6681 139.005 48.6681C138.299 48.6681 137.795 48.5176 137.494 48.2165C137.192 47.9154 137.042 47.4453 137.042 46.8062V44.2713C137.042 43.6322 137.192 43.1621 137.494 42.861C137.795 42.5599 138.299 42.4093 139.005 42.4093Z" fill="#DBB66B"/>
<path d="M146.403 42.5199V43.2297H144.007V45.1378H146.219V45.8383H144.007V47.8478H146.403V48.5575H143.223V42.5199H146.403Z" fill="#DBB66B"/>
<path d="M150.96 42.4093C151.292 42.4093 151.725 42.4585 152.26 42.5568L152.241 43.2481C151.737 43.1498 151.31 43.1006 150.96 43.1006C150.604 43.1006 150.345 43.1713 150.186 43.3127C150.032 43.454 149.955 43.6691 149.955 43.9579V44.1976C149.955 44.3512 149.974 44.4741 150.011 44.5663C150.054 44.6523 150.127 44.7291 150.232 44.7967C150.336 44.8582 150.493 44.9227 150.702 44.9903L151.559 45.276C151.971 45.4174 152.26 45.6048 152.426 45.8383C152.598 46.0718 152.684 46.4129 152.684 46.8615V47.0366C152.684 47.5835 152.524 47.9922 152.204 48.2626C151.891 48.5329 151.375 48.6681 150.656 48.6681C150.306 48.6681 149.857 48.6067 149.31 48.4838L149.328 47.774C149.839 47.8969 150.275 47.9584 150.637 47.9584C151.098 47.9584 151.424 47.8908 151.614 47.7556C151.805 47.6142 151.9 47.3961 151.9 47.1011V46.7969C151.9 46.5819 151.851 46.419 151.753 46.3084C151.661 46.1916 151.495 46.0933 151.255 46.0134L150.306 45.7C149.882 45.5587 149.587 45.3774 149.421 45.1562C149.255 44.9288 149.172 44.5878 149.172 44.133V44.0316C149.172 43.497 149.313 43.0945 149.596 42.8241C149.885 42.5476 150.339 42.4093 150.96 42.4093Z" fill="#DBB66B"/>
<path d="M162.036 42.5199V43.2297H159.64V45.1378H161.446V45.8383H159.64V48.5575H158.856V42.5199H162.036Z" fill="#DBB66B"/>
<path d="M165.631 42.5199V48.5575H164.847V42.5199H165.631Z" fill="#DBB66B"/>
<path d="M170.372 42.4093C171.097 42.4093 171.632 42.5507 171.976 42.8333C172.32 43.116 172.492 43.5124 172.492 44.0224V44.2529C172.492 44.6093 172.394 44.9257 172.197 45.2023C172 45.4727 171.718 45.6632 171.349 45.7738L172.916 48.5575H172.04L170.575 45.9397C170.526 45.9458 170.427 45.9489 170.28 45.9489C170.034 45.9489 169.791 45.9397 169.552 45.9213V48.5575H168.768V42.4462C169.456 42.4216 169.991 42.4093 170.372 42.4093ZM170.353 43.073C170.151 43.073 169.883 43.0791 169.552 43.0914V45.2668C169.883 45.2975 170.16 45.3129 170.381 45.3129C171.266 45.3129 171.708 44.9534 171.708 44.2344V44.0501C171.708 43.7182 171.601 43.4724 171.386 43.3127C171.171 43.1529 170.827 43.073 170.353 43.073Z" fill="#DBB66B"/>
<path d="M179.839 48.5575L179.793 43.5984L178.512 47.9307H177.544L176.262 43.5984L176.216 48.5575H175.451L175.507 42.5199H176.668L178.032 47.2302L179.387 42.5199H180.549L180.604 48.5575H179.839Z" fill="#DBB66B"/>
</g>
<defs>
<radialGradient id="paint0_radial_6415_1604" cx="0" cy="0" r="1" gradientUnits="userSpaceOnUse" gradientTransform="translate(20.6729 28.1776) rotate(111.801) scale(18.5545 7.42179)">
<stop stop-color="#D8AE5E"/>
<stop offset="1" stop-color="#F4CD83"/>
</radialGradient>
<clipPath id="clip0_6415_1604">
<rect width="186" height="51.0267" fill="white"/>
</clipPath>
</defs>
</svg>
